<svg xmlns="http://www.w3.org/2000/svg" xmlns:xlink="http://www.w3.org/1999/xlink" width="500" zoomAndPan="magnify" viewBox="0 0 375 374.999991" height="500" preserveAspectRatio="xMidYMid meet" version="1.0"><defs><g/><clipPath id="f54a95deb4"><path d="M 58.207031 118.472656 L 284.707031 118.472656 L 284.707031 231.722656 L 58.207031 231.722656 Z M 58.207031 118.472656 " clip-rule="nonzero"/></clipPath></defs><g clip-path="url(#f54a95deb4)"><path fill="#004aad" d="M 284.976562 230.339844 L 284.976562 230.753906 L 74.429688 231.511719 L 73.472656 231.511719 L 73.472656 230.554688 L 73.179688 166.507812 L 62.058594 166.5625 L 58.207031 166.574219 L 61.277344 164.210938 L 119.449219 119.292969 L 120.433594 118.535156 L 121.441406 119.292969 L 180.015625 163.664062 L 184.664062 167.183594 C 181.554688 167.199219 173.214844 167.238281 168.496094 167.25 L 168.523438 181.707031 L 164.40625 181.707031 L 164.433594 165.21875 L 164.433594 163.171875 L 166.464844 163.1875 L 173 163.214844 L 120.433594 122.667969 L 65.9375 163.957031 L 74.429688 163.996094 L 75.691406 163.996094 L 75.691406 165.246094 L 75.382812 229.597656 Z M 284.976562 230.339844 " fill-opacity="1" fill-rule="nonzero"/></g><g fill="#004aad" fill-opacity="1"><g transform="translate(80.949323, 219.534259)"><g><path d="M 16.515625 0 L 12.3125 -6.09375 L 7.65625 -6.09375 L 7.65625 0 L 2.59375 0 L 2.59375 -21.859375 L 12.0625 -21.859375 C 14 -21.859375 15.675781 -21.535156 17.09375 -20.890625 C 18.519531 -20.242188 19.617188 -19.328125 20.390625 -18.140625 C 21.160156 -16.953125 21.546875 -15.550781 21.546875 -13.9375 C 21.546875 -12.3125 21.15625 -10.910156 20.375 -9.734375 C 19.59375 -8.554688 18.484375 -7.65625 17.046875 -7.03125 L 21.953125 0 Z M 16.421875 -13.9375 C 16.421875 -15.15625 16.023438 -16.09375 15.234375 -16.75 C 14.453125 -17.40625 13.300781 -17.734375 11.78125 -17.734375 L 7.65625 -17.734375 L 7.65625 -10.125 L 11.78125 -10.125 C 13.300781 -10.125 14.453125 -10.457031 15.234375 -11.125 C 16.023438 -11.789062 16.421875 -12.726562 16.421875 -13.9375 Z M 16.421875 -13.9375 "/></g></g></g><g fill="#004aad" fill-opacity="1"><g transform="translate(107.01813, 219.534259)"><g><path d="M 16.984375 -4.6875 L 6.84375 -4.6875 L 4.90625 0 L -0.28125 0 L 9.46875 -21.859375 L 14.46875 -21.859375 L 24.234375 0 L 18.921875 0 Z M 15.40625 -8.53125 L 11.9375 -16.890625 L 8.46875 -8.53125 Z M 15.40625 -8.53125 "/></g></g></g><g fill="#004aad" fill-opacity="1"><g transform="translate(134.054717, 219.534259)"><g><path d="M 2.59375 -21.859375 L 7.65625 -21.859375 L 7.65625 0 L 2.59375 0 Z M 2.59375 -21.859375 "/></g></g></g><g fill="#004aad" fill-opacity="1"><g transform="translate(147.417496, 219.534259)"><g><path d="M 22.640625 -21.859375 L 22.640625 0 L 18.484375 0 L 7.59375 -13.28125 L 7.59375 0 L 2.59375 0 L 2.59375 -21.859375 L 6.78125 -21.859375 L 17.640625 -8.59375 L 17.640625 -21.859375 Z M 22.640625 -21.859375 "/></g></g></g><g fill="#004aad" fill-opacity="1"><g transform="translate(175.765276, 219.534259)"><g><path d="M 18.640625 -11.375 C 19.890625 -10.976562 20.867188 -10.316406 21.578125 -9.390625 C 22.285156 -8.460938 22.640625 -7.320312 22.640625 -5.96875 C 22.640625 -4.050781 21.894531 -2.578125 20.40625 -1.546875 C 18.914062 -0.515625 16.75 0 13.90625 0 L 2.59375 0 L 2.59375 -21.859375 L 13.28125 -21.859375 C 15.9375 -21.859375 17.976562 -21.347656 19.40625 -20.328125 C 20.832031 -19.304688 21.546875 -17.921875 21.546875 -16.171875 C 21.546875 -15.117188 21.289062 -14.175781 20.78125 -13.34375 C 20.269531 -12.507812 19.554688 -11.851562 18.640625 -11.375 Z M 7.625 -18.046875 L 7.625 -12.90625 L 12.65625 -12.90625 C 13.90625 -12.90625 14.847656 -13.125 15.484375 -13.5625 C 16.128906 -14 16.453125 -14.644531 16.453125 -15.5 C 16.453125 -16.34375 16.128906 -16.976562 15.484375 -17.40625 C 14.847656 -17.832031 13.90625 -18.046875 12.65625 -18.046875 Z M 13.53125 -3.8125 C 14.851562 -3.8125 15.851562 -4.03125 16.53125 -4.46875 C 17.207031 -4.90625 17.546875 -5.582031 17.546875 -6.5 C 17.546875 -8.3125 16.207031 -9.21875 13.53125 -9.21875 L 7.625 -9.21875 L 7.625 -3.8125 Z M 13.53125 -3.8125 "/></g></g></g><g fill="#004aad" fill-opacity="1"><g transform="translate(202.770641, 219.534259)"><g><path d="M 13.1875 0.375 C 10.914062 0.375 8.867188 -0.113281 7.046875 -1.09375 C 5.222656 -2.070312 3.796875 -3.421875 2.765625 -5.140625 C 1.734375 -6.859375 1.21875 -8.789062 1.21875 -10.9375 C 1.21875 -13.082031 1.734375 -15.007812 2.765625 -16.71875 C 3.796875 -18.4375 5.222656 -19.785156 7.046875 -20.765625 C 8.867188 -21.742188 10.914062 -22.234375 13.1875 -22.234375 C 15.445312 -22.234375 17.484375 -21.742188 19.296875 -20.765625 C 21.109375 -19.785156 22.535156 -18.4375 23.578125 -16.71875 C 24.617188 -15.007812 25.140625 -13.082031 25.140625 -10.9375 C 25.140625 -8.789062 24.617188 -6.859375 23.578125 -5.140625 C 22.535156 -3.421875 21.109375 -2.070312 19.296875 -1.09375 C 17.484375 -0.113281 15.445312 0.375 13.1875 0.375 Z M 13.1875 -3.9375 C 14.476562 -3.9375 15.640625 -4.234375 16.671875 -4.828125 C 17.710938 -5.421875 18.53125 -6.25 19.125 -7.3125 C 19.71875 -8.375 20.015625 -9.582031 20.015625 -10.9375 C 20.015625 -12.289062 19.71875 -13.492188 19.125 -14.546875 C 18.53125 -15.609375 17.710938 -16.4375 16.671875 -17.03125 C 15.640625 -17.625 14.476562 -17.921875 13.1875 -17.921875 C 11.894531 -17.921875 10.726562 -17.625 9.6875 -17.03125 C 8.644531 -16.4375 7.828125 -15.609375 7.234375 -14.546875 C 6.640625 -13.492188 6.34375 -12.289062 6.34375 -10.9375 C 6.34375 -9.582031 6.640625 -8.375 7.234375 -7.3125 C 7.828125 -6.25 8.644531 -5.421875 9.6875 -4.828125 C 10.726562 -4.234375 11.894531 -3.9375 13.1875 -3.9375 Z M 13.1875 -3.9375 "/></g></g></g><g fill="#004aad" fill-opacity="1"><g transform="translate(232.242288, 219.534259)"><g><path d="M 35.640625 -21.859375 L 28.484375 0 L 23.046875 0 L 18.234375 -14.8125 L 13.28125 0 L 7.875 0 L 0.6875 -21.859375 L 5.9375 -21.859375 L 10.875 -6.5 L 16.015625 -21.859375 L 20.703125 -21.859375 L 25.703125 -6.375 L 30.796875 -21.859375 Z M 35.640625 -21.859375 "/></g></g></g></svg>